HIERARCHY
ROOT Pelvis
{
	OFFSET 0.000000 0.000000 0.000000
	CHANNELS 6 Xposition Yposition Zposition Xrotation Yrotation Zrotation
	JOINT LeftUpLeg_virtual
	{
		OFFSET 0.000000 0.000000 0.000000
		CHANNELS 3 Xrotation Yrotation Zrotation
		JOINT LeftUpLeg
		{
			OFFSET 18.735201 -5.666702 -4.541200
			CHANNELS 3 Xrotation Yrotation Zrotation
			JOINT LeftLeg
			{
				OFFSET -0.021200 -31.938179 0.493100
				CHANNELS 3 Xrotation Yrotation Zrotation
				JOINT LeftFoot
				{
					OFFSET 0.021200 -31.938179 -4.336299
					CHANNELS 3 Xrotation Yrotation Zrotation
					JOINT LeftToeBase
					{
						OFFSET 0.943001 -26.722000 15.023500
						CHANNELS 3 Xrotation Yrotation Zrotation
						End Site
						{
							OFFSET 0 0 0
						}
					}
				}
			}
		}
	}
	JOINT RightUpLeg_virtual
	{
		OFFSET 0.000000 0.000000 0.000000
		CHANNELS 3 Xrotation Yrotation Zrotation
		JOINT RightUpLeg
		{
			OFFSET -18.735201 -5.666702 -4.541200
			CHANNELS 3 Xrotation Yrotation Zrotation
			JOINT RightLeg
			{
				OFFSET 0.018946 -31.938133 0.493100
				CHANNELS 3 Xrotation Yrotation Zrotation
				JOINT RightFoot
				{
					OFFSET -0.018946 -31.938126 -4.336299
					CHANNELS 3 Xrotation Yrotation Zrotation
					JOINT RightToeBase
					{
						OFFSET -0.943001 -26.722004 15.023500
						CHANNELS 3 Xrotation Yrotation Zrotation
						End Site
						{
							OFFSET 0 0 0
						}
					}
				}
			}
		}
	}
	JOINT Hips_virtual
	{
		OFFSET 0.000000 0.000000 0.000000
		CHANNELS 3 Xrotation Yrotation Zrotation
		JOINT Hips
		{
			OFFSET -0.000000 -0.000000 -0.000000
			CHANNELS 3 Xrotation Yrotation Zrotation
			JOINT Spine
			{
				OFFSET 0.000000 10.199997 -0.299500
				CHANNELS 3 Xrotation Yrotation Zrotation
				JOINT Spine1
				{
					OFFSET 0.000000 11.900002 -1.516600
					CHANNELS 3 Xrotation Yrotation Zrotation
					JOINT Spine2
					{
						OFFSET 0.000000 13.600006 -2.842500
						CHANNELS 3 Xrotation Yrotation Zrotation
						JOINT Neck_virtual
						{
							OFFSET 0.000000 0.000000 0.000000
							CHANNELS 3 Xrotation Yrotation Zrotation
							JOINT Neck
							{
								OFFSET 0.000000 9.624100 -2.890100
								CHANNELS 3 Xrotation Yrotation Zrotation
								JOINT Head
								{
									OFFSET 0.000000 14.068802 -1.351900
									CHANNELS 3 Xrotation Yrotation Zrotation
									End Site
									{
										OFFSET 0 0 0
									}
								}
							}
						}
						JOINT LeftShoulder_virtual
						{
							OFFSET 0.000000 0.000000 0.000000
							CHANNELS 3 Xrotation Yrotation Zrotation
							JOINT LeftShoulder
							{
								OFFSET 15.263000 10.923401 -0.547700
								CHANNELS 3 Xrotation Yrotation Zrotation
								JOINT LeftArm
								{
									OFFSET 25.438599 -2.830597 -13.032500
									CHANNELS 3 Xrotation Yrotation Zrotation
									JOINT LeftForeArm
									{
										OFFSET 29.960503 0.000000 0.000000
										CHANNELS 3 Xrotation Yrotation Zrotation
										JOINT LeftHand
										{
											OFFSET 27.849251 0.000000 0.000000
											CHANNELS 3 Xrotation Yrotation Zrotation
											End Site
											{
												OFFSET 0 0 0
											}
										}
									}
								}
							}
						}
						JOINT RightShoulder_virtual
						{
							OFFSET 0.000000 0.000000 0.000000
							CHANNELS 3 Xrotation Yrotation Zrotation
							JOINT RightShoulder
							{
								OFFSET -15.263000 10.923401 -0.547700
								CHANNELS 3 Xrotation Yrotation Zrotation
								JOINT RightArm
								{
									OFFSET -25.438599 -2.830597 -13.032500
									CHANNELS 3 Xrotation Yrotation Zrotation
									JOINT RightForeArm
									{
										OFFSET -29.960503 0.000000 0.000000
										CHANNELS 3 Xrotation Yrotation Zrotation
										JOINT RightHand
										{
											OFFSET -27.849251 0.000000 0.000000
											CHANNELS 3 Xrotation Yrotation Zrotation
											End Site
											{
												OFFSET 0 0 0
											}
										}
									}
								}
							}
						}
					}
				}
			}
		}
	}
}
MOTION
Frames: 4
Frame Time: 0.03333333
-2.783951 87.822502 2.837311 0.000000 0.000000 0.000000 -6.078100 -42.937936 -3.789455 -34.392922 2.849983 16.371236 38.632752 -14.745562 -0.131485 -1.804801 0.989422 -11.110821 0.000000 0.000000 0.000000 -6.078100 -42.937936 -3.789455 1.083492 -13.658541 -18.458158 33.744761 -7.728715 -0.245042 -25.562961 -6.500521 21.389700 0.000000 0.000000 0.000000 -6.078100 -42.937936 -3.789455 0.000000 0.000002 0.000000 5.850705 4.525945 -1.454931 11.836539 9.037613 -3.083970 0.000000 0.000000 0.000000 11.836544 9.037612 -3.083970 -0.860915 -0.253287 0.048899 0.000000 0.000000 0.000000 11.836544 9.037612 -3.083970 1.392464 -0.696061 -7.877847 -14.260091 2.394338 -63.277106 9.865074 -47.524921 5.927949 0.000000 0.000000 0.000000 11.836544 9.037612 -3.083970 1.410922 9.461496 9.792744 1.220055 -24.270700 60.532920 -6.660705 41.858411 8.043834 0.000000 0.000000 0.000000 
-2.798892 87.765808 2.872940 0.000000 0.000000 0.000000 -5.658449 -42.846173 -3.433406 -34.734343 2.735376 16.212854 38.711723 -14.620220 -0.106454 -1.816712 0.987785 -11.166094 0.000000 0.000000 0.000000 -5.658449 -42.846173 -3.433406 0.619486 -13.539582 -18.341454 34.331379 -8.534940 -0.351201 -25.714865 -6.561635 21.433600 0.000000 0.000000 0.000000 -5.658449 -42.846173 -3.433406 0.000000 -0.000001 0.000000 5.749148 4.355221 -1.493204 11.629819 8.696609 -3.147943 0.000000 0.000000 0.000000 11.629814 8.696622 -3.147945 -0.838033 -0.114998 0.012067 0.000000 0.000000 0.000000 11.629814 8.696622 -3.147945 1.380122 -0.996760 -8.053122 -14.173302 2.709393 -62.680919 9.587344 -47.246693 5.801147 0.000000 0.000000 0.000000 11.629814 8.696622 -3.147945 1.353087 9.120822 10.030855 1.496274 -24.000622 60.284944 -5.499473 42.033121 7.478103 0.000000 0.000000 0.000000 
-2.779177 87.703728 2.933601 0.000000 0.000000 0.000000 -5.034852 -42.536601 -2.948490 -35.295160 2.539794 15.956924 38.694736 -14.679490 -0.077939 -1.672875 0.977733 -11.235858 0.000000 0.000000 0.000000 -5.034852 -42.536601 -2.948490 0.174492 -13.413419 -18.074397 34.833941 -9.692682 -0.500300 -25.812858 -6.643740 21.544177 0.000000 0.000000 0.000000 -5.034852 -42.536601 -2.948490 0.000000 -0.000001 0.000000 5.645373 4.178069 -1.524147 11.417960 8.343466 -3.198495 0.000000 0.000000 0.000000 11.417961 8.343443 -3.198489 -0.942527 0.046054 -0.056444 0.000000 0.000000 0.000000 11.417961 8.343443 -3.198489 1.365571 -1.313365 -8.238629 -14.177989 2.972075 -62.078196 9.495128 -46.935964 5.816216 0.000000 0.000000 0.000000 11.417961 8.343443 -3.198489 1.299691 8.823664 10.220365 1.828202 -23.749596 60.051706 -4.197134 42.197786 6.777229 0.000000 0.000000 0.000000 
-2.743447 87.618721 3.000381 0.000000 0.000000 0.000000 -4.267657 -42.000404 -2.434266 -36.109701 2.216533 15.652610 38.751529 -14.804531 -0.045057 -1.459330 0.956291 -11.251759 0.000000 0.000000 0.000000 -4.267657 -42.000404 -2.434266 -0.185919 -13.304257 -17.602914 35.220864 -11.169753 -0.689235 -25.853499 -6.743946 21.748712 0.000000 0.000000 0.000000 -4.267657 -42.000404 -2.434266 0.000000 0.000001 0.000000 5.554839 3.997048 -1.537971 11.230591 7.983842 -3.208966 0.000000 0.000000 0.000000 11.230591 7.983850 -3.208963 -1.148605 0.227676 -0.149768 0.000000 0.000000 0.000000 11.230591 7.983850 -3.208963 1.348206 -1.647999 -8.431667 -14.236284 3.204030 -61.492268 9.570541 -46.641494 5.961939 0.000000 0.000000 0.000000 11.230591 7.983850 -3.208963 1.252401 8.568990 10.347229 2.131727 -23.375313 59.828400 -2.736089 42.328670 5.976105 0.000000 0.000000 0.000000 
